<svg width="299" height="272" viewBox="0 0 299 272" fill="none" xmlns="http://www.w3.org/2000/svg">
<mask id="path-1-inside-1_8233_412" fill="white">
<path fill-rule="evenodd" clip-rule="evenodd" d="M91.0348 2.64066C67.1034 -1.57908 44.2825 14.4003 40.0627 38.3317L17.1411 168.326C12.9214 192.258 28.9008 215.079 52.8322 219.298L67.756 221.93C68.4892 222.242 69.2349 222.537 69.9928 222.813L194.032 267.959C216.867 276.271 242.116 264.497 250.428 241.662L295.574 117.622C303.885 94.7873 292.112 69.5382 269.277 61.2269L255.536 56.2257C250.894 40.8273 237.949 28.5456 221.029 25.5622L91.0348 2.64066Z"/>
</mask>
<path fill-rule="evenodd" clip-rule="evenodd" d="M91.0348 2.64066C67.1034 -1.57908 44.2825 14.4003 40.0627 38.3317L17.1411 168.326C12.9214 192.258 28.9008 215.079 52.8322 219.298L67.756 221.93C68.4892 222.242 69.2349 222.537 69.9928 222.813L194.032 267.959C216.867 276.271 242.116 264.497 250.428 241.662L295.574 117.622C303.885 94.7873 292.112 69.5382 269.277 61.2269L255.536 56.2257C250.894 40.8273 237.949 28.5456 221.029 25.5622L91.0348 2.64066Z" fill="#FF6900" fill-opacity="0.7"/>
<path d="M40.0627 38.3317L38.0931 37.9844L40.0627 38.3317ZM91.0348 2.64066L90.6875 4.61028L91.0348 2.64066ZM17.1411 168.326L15.1715 167.979L17.1411 168.326ZM52.8322 219.298L53.1795 217.329L52.8322 219.298ZM67.756 221.93L68.5401 220.09L68.3291 220L68.1032 219.96L67.756 221.93ZM69.9928 222.813L70.6768 220.933L70.6768 220.933L69.9928 222.813ZM194.032 267.959L193.348 269.839L194.032 267.959ZM250.428 241.662L248.548 240.978L250.428 241.662ZM295.574 117.622L293.695 116.938L295.574 117.622ZM269.277 61.2269L268.593 63.1063L269.277 61.2269ZM255.536 56.2257L253.621 56.8029L253.91 57.7623L254.852 58.105L255.536 56.2257ZM221.029 25.5622L221.377 23.5926L221.029 25.5622ZM42.0323 38.679C46.0603 15.8354 67.8439 0.582339 90.6875 4.61028L91.3821 0.671044C66.3629 -3.7405 42.5046 12.9652 38.0931 37.9844L42.0323 38.679ZM19.1108 168.674L42.0323 38.679L38.0931 37.9844L15.1715 167.979L19.1108 168.674ZM53.1795 217.329C30.3359 213.301 15.0828 191.517 19.1108 168.674L15.1715 167.979C10.76 192.998 27.4657 216.856 52.4849 221.268L53.1795 217.329ZM68.1032 219.96L53.1795 217.329L52.4849 221.268L67.4087 223.899L68.1032 219.96ZM70.6768 220.933C69.9526 220.67 69.2403 220.388 68.5401 220.09L66.9718 223.77C67.738 224.096 68.5171 224.404 69.3087 224.692L70.6768 220.933ZM194.716 266.08L70.6768 220.933L69.3087 224.692L193.348 269.839L194.716 266.08ZM248.548 240.978C240.615 262.775 216.513 274.013 194.716 266.08L193.348 269.839C217.221 278.528 243.618 266.219 252.307 242.346L248.548 240.978ZM293.695 116.938L248.548 240.978L252.307 242.346L297.454 118.306L293.695 116.938ZM268.593 63.1063C290.39 71.0398 301.628 95.1412 293.695 116.938L297.454 118.306C306.143 94.4333 293.834 68.0366 269.961 59.3475L268.593 63.1063ZM254.852 58.105L268.593 63.1063L269.961 59.3475L256.22 54.3463L254.852 58.105ZM220.682 27.5318C236.83 30.3792 249.189 42.0992 253.621 56.8029L257.451 55.6484C252.6 39.5555 239.068 26.7121 221.377 23.5926L220.682 27.5318ZM90.6875 4.61028L220.682 27.5318L221.377 23.5926L91.3821 0.671044L90.6875 4.61028Z" fill="url(#paint0_linear_8233_412)" mask="url(#path-1-inside-1_8233_412)"/>
<rect opacity="0.6" x="48.5143" y="-3.84154" width="218" height="218" rx="43" transform="rotate(10 48.5143 -3.84154)" fill="#FF6900" stroke="url(#paint1_linear_8233_412)" stroke-width="2"/>
<rect x="1" y="1" width="218" height="218" rx="43" fill="#FF6900"/>
<rect x="1" y="1" width="218" height="218" rx="43" stroke="url(#paint2_linear_8233_412)" stroke-width="2"/>
<path d="M25.4737 168.928H34.1849C35.0009 168.932 35.7541 168.469 36.1514 167.722L36.7413 166.608C39.8546 160.667 45.4398 156.598 51.8335 155.613L53.8001 155.314C55.0906 155.317 56.2556 154.502 56.7497 153.251L86.3345 80.2692C86.5056 79.8511 86.4403 79.3679 86.1652 79.0161C85.8901 78.6646 85.451 78.5033 85.0267 78.598L83.4537 78.928C66.041 83.3633 54.2819 94.7498 46.3571 110.345L45.9835 111.18L23.7334 166.133C23.4738 166.75 23.5291 167.462 23.8804 168.026C24.2317 168.591 24.8313 168.93 25.4737 168.928Z" fill="white"/>
<path d="M60.8199 168.929H82.3214L83.4789 168.279L87.1699 162.261C105.376 132.533 148.24 136.004 161.925 167.822C162.219 168.499 162.875 168.933 163.597 168.929H178.805C179.344 168.928 179.858 168.694 180.22 168.284C180.582 167.875 180.758 167.327 180.705 166.777L176.688 124.556C176.651 124.186 176.361 123.895 176 123.865C175.638 123.836 175.308 124.075 175.213 124.434L171.681 137.506C171.428 138.436 170.546 139.033 169.613 138.907L145.747 135.609C144.104 135.32 142.713 134.202 142.046 132.635L133.665 112.782C133.406 112.118 133.507 111.363 133.931 110.794C134.355 110.226 135.04 109.929 135.733 110.012L149.883 111.94C150.646 112.047 151.29 112.578 151.555 113.321L153.959 120.019C154.063 120.307 154.336 120.495 154.635 120.483C154.935 120.472 155.193 120.264 155.275 119.968L157.64 111.199C157.789 110.665 157.703 110.09 157.404 109.626C157.106 109.162 156.624 108.854 156.087 108.784L128.263 104.968C108.404 102.248 104.852 74.3167 123.315 66.4611L128.619 64.2083C128.914 64.0714 129.261 64.1497 129.473 64.3998C129.685 64.6503 129.712 65.0136 129.539 65.2939L125.037 73.1091C123.306 76.1057 123.158 79.7937 124.641 82.9269C126.125 86.0601 129.042 88.2205 132.409 88.6781L163.547 92.9508C166.548 93.359 169.522 92.033 171.279 89.5042C173.035 86.9757 173.285 83.6587 171.928 80.8834L170.939 78.9247C154.731 45.8683 108.226 47.4009 94.116 81.4517L93.2354 83.5731L59.0786 166.209C58.8312 166.81 58.8923 167.499 59.2419 168.045C59.5915 168.591 60.1832 168.922 60.8199 168.929Z" fill="white"/>
<path d="M180.714 110L183.479 109.544C189.103 108.617 193.762 104.658 195.601 99.2423C197.441 93.8261 196.162 87.8332 192.273 83.6496L187.483 78.7826C187.241 78.5453 186.87 78.503 186.581 78.6803C186.293 78.8577 186.161 79.2096 186.262 79.5335L188.383 85.7886C189.595 89.2391 188.12 93.0619 184.908 94.7907L180.714 110Z" fill="white"/>
<defs>
<linearGradient id="paint0_linear_8233_412" x1="16.4653" y1="-4.75166" x2="273.304" y2="276.753" gradientUnits="userSpaceOnUse">
<stop stop-color="white"/>
<stop offset="0.5" stop-color="white" stop-opacity="0"/>
<stop offset="1" stop-color="white" stop-opacity="0.6"/>
</linearGradient>
<linearGradient id="paint1_linear_8233_412" x1="47.7031" y1="-10.5" x2="258.703" y2="210" gradientUnits="userSpaceOnUse">
<stop stop-color="white" stop-opacity="0.4"/>
<stop offset="0.5" stop-color="white" stop-opacity="0"/>
<stop offset="1" stop-color="white" stop-opacity="0.6"/>
</linearGradient>
<linearGradient id="paint2_linear_8233_412" x1="1.07139e-06" y1="-5.5" x2="211" y2="215" gradientUnits="userSpaceOnUse">
<stop stop-color="white" stop-opacity="0.6"/>
<stop offset="0.5" stop-color="white" stop-opacity="0"/>
<stop offset="1" stop-color="white" stop-opacity="0.6"/>
</linearGradient>
</defs>
</svg>
